<mxfile host="app.diagrams.net" agent="Mozilla/5.0 (Windows NT 10.0; Win64; x64) AppleWebKit/537.36 (KHTML, like Gecko) Chrome/127.0.0.0 Safari/537.36" version="24.7.7">
  <diagram name="Página-1" id="y8FsmgQ5lBpO_BRQqTZF">
    <mxGraphModel dx="2084" dy="1860" grid="1" gridSize="10" guides="1" tooltips="1" connect="1" arrows="1" fold="1" page="1" pageScale="1" pageWidth="827" pageHeight="1169" math="0" shadow="0">
      <root>
        <mxCell id="0" />
        <mxCell id="1" parent="0" />
        <mxCell id="r2CR3xi1dDhj-P9-eTeV-1" value="Natalia" style="rounded=0;whiteSpace=wrap;html=1;" vertex="1" parent="1">
          <mxGeometry x="140" y="30" width="120" height="60" as="geometry" />
        </mxCell>
        <mxCell id="r2CR3xi1dDhj-P9-eTeV-2" value="Vendedores 4X4" style="whiteSpace=wrap;html=1;aspect=fixed;" vertex="1" parent="1">
          <mxGeometry x="120" y="280" width="80" height="80" as="geometry" />
        </mxCell>
        <mxCell id="r2CR3xi1dDhj-P9-eTeV-3" value="Juancho&lt;div&gt;(Terrerno)&lt;br&gt;&lt;/div&gt;" style="rounded=1;whiteSpace=wrap;html=1;" vertex="1" parent="1">
          <mxGeometry x="280" y="80" width="120" height="60" as="geometry" />
        </mxCell>
        <mxCell id="r2CR3xi1dDhj-P9-eTeV-4" value="Ramon&lt;div&gt;(Terrerno BAF)&lt;br&gt;&lt;/div&gt;" style="rounded=1;whiteSpace=wrap;html=1;" vertex="1" parent="1">
          <mxGeometry x="470" y="80" width="120" height="60" as="geometry" />
        </mxCell>
        <mxCell id="r2CR3xi1dDhj-P9-eTeV-5" value="Vendedores BAF" style="whiteSpace=wrap;html=1;aspect=fixed;" vertex="1" parent="1">
          <mxGeometry x="500" y="170" width="80" height="80" as="geometry" />
        </mxCell>
        <mxCell id="r2CR3xi1dDhj-P9-eTeV-6" value="Distribución Interior" style="whiteSpace=wrap;html=1;aspect=fixed;" vertex="1" parent="1">
          <mxGeometry x="310" y="170" width="80" height="80" as="geometry" />
        </mxCell>
        <mxCell id="r2CR3xi1dDhj-P9-eTeV-7" value="Luna" style="rounded=1;whiteSpace=wrap;html=1;" vertex="1" parent="1">
          <mxGeometry x="640" y="120" width="120" height="60" as="geometry" />
        </mxCell>
        <mxCell id="r2CR3xi1dDhj-P9-eTeV-8" value="Distribución Posadas" style="whiteSpace=wrap;html=1;aspect=fixed;" vertex="1" parent="1">
          <mxGeometry x="680" y="200" width="80" height="80" as="geometry" />
        </mxCell>
        <mxCell id="r2CR3xi1dDhj-P9-eTeV-9" value="María&lt;div&gt;(Terrerno)&lt;/div&gt;" style="rounded=1;whiteSpace=wrap;html=1;" vertex="1" parent="1">
          <mxGeometry x="80" y="190" width="120" height="60" as="geometry" />
        </mxCell>
        <mxCell id="r2CR3xi1dDhj-P9-eTeV-10" value="Asesores Call Center" style="whiteSpace=wrap;html=1;aspect=fixed;" vertex="1" parent="1">
          <mxGeometry x="-90" y="280" width="80" height="80" as="geometry" />
        </mxCell>
        <mxCell id="r2CR3xi1dDhj-P9-eTeV-11" value="Asesores BO&lt;div&gt;Validadores&lt;/div&gt;" style="whiteSpace=wrap;html=1;aspect=fixed;" vertex="1" parent="1">
          <mxGeometry x="-310" y="280" width="80" height="80" as="geometry" />
        </mxCell>
        <mxCell id="r2CR3xi1dDhj-P9-eTeV-12" value="Asesores BO" style="whiteSpace=wrap;html=1;aspect=fixed;" vertex="1" parent="1">
          <mxGeometry x="-200" y="280" width="80" height="80" as="geometry" />
        </mxCell>
        <mxCell id="r2CR3xi1dDhj-P9-eTeV-15" value="" style="endArrow=classic;html=1;rounded=0;entryX=0.588;entryY=0.038;entryDx=0;entryDy=0;entryPerimeter=0;exitX=0;exitY=0.5;exitDx=0;exitDy=0;" edge="1" parent="1" source="r2CR3xi1dDhj-P9-eTeV-1" target="r2CR3xi1dDhj-P9-eTeV-10">
          <mxGeometry width="50" height="50" relative="1" as="geometry">
            <mxPoint x="-10" y="120" as="sourcePoint" />
            <mxPoint x="40" y="70" as="targetPoint" />
            <Array as="points">
              <mxPoint y="110" />
            </Array>
          </mxGeometry>
        </mxCell>
        <mxCell id="r2CR3xi1dDhj-P9-eTeV-16" value="" style="endArrow=classic;html=1;rounded=0;entryX=0.588;entryY=0.038;entryDx=0;entryDy=0;entryPerimeter=0;exitX=0;exitY=0.25;exitDx=0;exitDy=0;" edge="1" parent="1" source="r2CR3xi1dDhj-P9-eTeV-1">
          <mxGeometry width="50" height="50" relative="1" as="geometry">
            <mxPoint x="23" y="60" as="sourcePoint" />
            <mxPoint x="-160" y="283" as="targetPoint" />
            <Array as="points">
              <mxPoint x="-60" y="120" />
            </Array>
          </mxGeometry>
        </mxCell>
        <mxCell id="r2CR3xi1dDhj-P9-eTeV-17" value="" style="endArrow=classic;html=1;rounded=0;exitX=0.25;exitY=1;exitDx=0;exitDy=0;" edge="1" parent="1" source="r2CR3xi1dDhj-P9-eTeV-1" target="r2CR3xi1dDhj-P9-eTeV-9">
          <mxGeometry width="50" height="50" relative="1" as="geometry">
            <mxPoint x="370" y="90" as="sourcePoint" />
            <mxPoint x="70" y="328" as="targetPoint" />
            <Array as="points">
              <mxPoint x="160" y="160" />
            </Array>
          </mxGeometry>
        </mxCell>
        <mxCell id="r2CR3xi1dDhj-P9-eTeV-21" value="" style="endArrow=classic;html=1;rounded=0;entryX=0.388;entryY=0;entryDx=0;entryDy=0;entryPerimeter=0;" edge="1" parent="1" source="r2CR3xi1dDhj-P9-eTeV-9" target="r2CR3xi1dDhj-P9-eTeV-2">
          <mxGeometry width="50" height="50" relative="1" as="geometry">
            <mxPoint x="90" y="280" as="sourcePoint" />
            <mxPoint x="140" y="230" as="targetPoint" />
          </mxGeometry>
        </mxCell>
        <mxCell id="r2CR3xi1dDhj-P9-eTeV-22" value="" style="endArrow=classic;html=1;rounded=0;entryX=0.5;entryY=0;entryDx=0;entryDy=0;exitX=0.567;exitY=1.033;exitDx=0;exitDy=0;exitPerimeter=0;" edge="1" parent="1" source="r2CR3xi1dDhj-P9-eTeV-3" target="r2CR3xi1dDhj-P9-eTeV-6">
          <mxGeometry width="50" height="50" relative="1" as="geometry">
            <mxPoint x="330" y="280" as="sourcePoint" />
            <mxPoint x="380" y="230" as="targetPoint" />
          </mxGeometry>
        </mxCell>
        <mxCell id="r2CR3xi1dDhj-P9-eTeV-23" value="" style="endArrow=classic;html=1;rounded=0;entryX=0.5;entryY=0;entryDx=0;entryDy=0;exitX=0.5;exitY=1;exitDx=0;exitDy=0;" edge="1" parent="1" source="r2CR3xi1dDhj-P9-eTeV-4" target="r2CR3xi1dDhj-P9-eTeV-5">
          <mxGeometry width="50" height="50" relative="1" as="geometry">
            <mxPoint x="358" y="152" as="sourcePoint" />
            <mxPoint x="360" y="180" as="targetPoint" />
            <Array as="points" />
          </mxGeometry>
        </mxCell>
        <mxCell id="r2CR3xi1dDhj-P9-eTeV-25" value="" style="endArrow=classic;html=1;rounded=0;entryX=0.5;entryY=0;entryDx=0;entryDy=0;exitX=0.625;exitY=0.967;exitDx=0;exitDy=0;exitPerimeter=0;" edge="1" parent="1" source="r2CR3xi1dDhj-P9-eTeV-7" target="r2CR3xi1dDhj-P9-eTeV-8">
          <mxGeometry width="50" height="50" relative="1" as="geometry">
            <mxPoint x="330" y="280" as="sourcePoint" />
            <mxPoint x="380" y="230" as="targetPoint" />
          </mxGeometry>
        </mxCell>
        <mxCell id="r2CR3xi1dDhj-P9-eTeV-26" value="Fabián" style="ellipse;whiteSpace=wrap;html=1;" vertex="1" parent="1">
          <mxGeometry x="150" y="-140" width="120" height="80" as="geometry" />
        </mxCell>
        <mxCell id="r2CR3xi1dDhj-P9-eTeV-27" value="" style="endArrow=classic;html=1;rounded=0;entryX=0.5;entryY=0;entryDx=0;entryDy=0;exitX=0.45;exitY=1.025;exitDx=0;exitDy=0;exitPerimeter=0;" edge="1" parent="1" source="r2CR3xi1dDhj-P9-eTeV-26" target="r2CR3xi1dDhj-P9-eTeV-1">
          <mxGeometry width="50" height="50" relative="1" as="geometry">
            <mxPoint x="330" y="80" as="sourcePoint" />
            <mxPoint x="380" y="30" as="targetPoint" />
          </mxGeometry>
        </mxCell>
        <mxCell id="r2CR3xi1dDhj-P9-eTeV-28" value="" style="endArrow=classic;html=1;rounded=0;entryX=0.5;entryY=0;entryDx=0;entryDy=0;" edge="1" parent="1" source="r2CR3xi1dDhj-P9-eTeV-26">
          <mxGeometry width="50" height="50" relative="1" as="geometry">
            <mxPoint x="334" y="-8" as="sourcePoint" />
            <mxPoint x="330" y="80" as="targetPoint" />
          </mxGeometry>
        </mxCell>
        <mxCell id="r2CR3xi1dDhj-P9-eTeV-29" value="" style="endArrow=classic;html=1;rounded=0;entryX=0.5;entryY=0;entryDx=0;entryDy=0;exitX=1;exitY=0.5;exitDx=0;exitDy=0;" edge="1" parent="1" source="r2CR3xi1dDhj-P9-eTeV-26">
          <mxGeometry width="50" height="50" relative="1" as="geometry">
            <mxPoint x="260" y="-110" as="sourcePoint" />
            <mxPoint x="538" y="80" as="targetPoint" />
          </mxGeometry>
        </mxCell>
        <mxCell id="r2CR3xi1dDhj-P9-eTeV-30" value="" style="endArrow=classic;html=1;rounded=0;entryX=0.583;entryY=0.017;entryDx=0;entryDy=0;entryPerimeter=0;exitX=0.775;exitY=0.038;exitDx=0;exitDy=0;exitPerimeter=0;" edge="1" parent="1" source="r2CR3xi1dDhj-P9-eTeV-26" target="r2CR3xi1dDhj-P9-eTeV-7">
          <mxGeometry width="50" height="50" relative="1" as="geometry">
            <mxPoint x="330" y="80" as="sourcePoint" />
            <mxPoint x="380" y="30" as="targetPoint" />
          </mxGeometry>
        </mxCell>
        <mxCell id="r2CR3xi1dDhj-P9-eTeV-31" value="" style="endArrow=classic;html=1;rounded=0;entryX=0.5;entryY=0;entryDx=0;entryDy=0;exitX=0;exitY=0.117;exitDx=0;exitDy=0;exitPerimeter=0;" edge="1" parent="1" source="r2CR3xi1dDhj-P9-eTeV-1">
          <mxGeometry relative="1" as="geometry">
            <mxPoint x="-70" y="50" as="sourcePoint" />
            <mxPoint x="-180" y="80.00000000000023" as="targetPoint" />
            <Array as="points">
              <mxPoint x="-60" y="-40" />
            </Array>
          </mxGeometry>
        </mxCell>
        <mxCell id="r2CR3xi1dDhj-P9-eTeV-33" value="Coaching Externo" style="text;html=1;align=center;verticalAlign=middle;whiteSpace=wrap;rounded=0;" vertex="1" parent="1">
          <mxGeometry x="-90" y="-70" width="60" height="30" as="geometry" />
        </mxCell>
        <mxCell id="r2CR3xi1dDhj-P9-eTeV-34" value="Constanza" style="shape=parallelogram;perimeter=parallelogramPerimeter;whiteSpace=wrap;html=1;fixedSize=1;" vertex="1" parent="1">
          <mxGeometry x="-240" y="80" width="120" height="60" as="geometry" />
        </mxCell>
        <mxCell id="r2CR3xi1dDhj-P9-eTeV-35" value="Julián" style="rounded=0;whiteSpace=wrap;html=1;" vertex="1" parent="1">
          <mxGeometry x="690" y="10" width="120" height="60" as="geometry" />
        </mxCell>
        <mxCell id="r2CR3xi1dDhj-P9-eTeV-36" value="" style="endArrow=classic;html=1;rounded=0;exitX=0.417;exitY=0;exitDx=0;exitDy=0;exitPerimeter=0;entryX=0.5;entryY=0;entryDx=0;entryDy=0;" edge="1" parent="1" source="r2CR3xi1dDhj-P9-eTeV-26" target="r2CR3xi1dDhj-P9-eTeV-35">
          <mxGeometry width="50" height="50" relative="1" as="geometry">
            <mxPoint x="220" y="160" as="sourcePoint" />
            <mxPoint x="720" y="-40" as="targetPoint" />
          </mxGeometry>
        </mxCell>
      </root>
    </mxGraphModel>
  </diagram>
</mxfile>
